<svg id="Capa_1" data-name="Capa 1" xmlns="http://www.w3.org/2000/svg" viewBox="0 0 1921 1083.1"><defs><style>.cls-1{fill:#fff;}.cls-1,.cls-2{stroke:#000;}.cls-1,.cls-2,.cls-4,.cls-5,.cls-6{stroke-miterlimit:10;}.cls-2{fill:#b3b3b3;stroke-width:0.47px;}.cls-3{fill:#ffc9df;}.cls-4,.cls-5{fill:#999;stroke:#999;}.cls-4{stroke-width:3.86px;}.cls-5{stroke-width:5.19px;}.cls-6{fill:#a67c52;stroke:#a67c52;stroke-width:4.54px;}.cls-7{fill:#c69c6d;}.cls-8{fill:#f15a24;}.cls-9{fill:#f7931e;}</style></defs><title>sofia_villicana</title><rect class="cls-1" x="0.5" y="0.5" width="1920" height="925.71"/><rect class="cls-2" x="0.5" y="878.69" width="1920" height="201.81"/><path class="cls-3" d="M7199.5,6659.5l.5,166s2.88,24.67,15.21,34.53,39.47,9.87,39.47-22.2v-32.06s-2.47,130.73,24.66,148,27.14-56.73,27.14-93.74l125.8,123.34s-4.93,98.67,0,113.47,17.27,17.26,27.13,12.33,0-93.73,0-93.73,7.4,128.27,19.74,135.67,24.66,19.73,32.06,0,0-101.14,0-101.14l74,54.27s-9.86,170.2,0,202.27,39.47,34.53,46.87,24.66,0-64.13,0-64.13l3.29,270.68H8159.5V6659.5Z" transform="translate(-6239 -6659)"/><polygon class="cls-4" points="1113.37 954.46 1325.07 1080.5 1344.32 1080.5 1139.49 944.71 1113.37 954.46"/><polygon class="cls-5" points="1278.42 951.67 1505.51 1080.5 1519.53 1080.5 1295.24 939.14 1278.42 951.67"/><path class="cls-6" d="M7268.9,6771.45l89.57,841.94a10.63,10.63,0,0,0,10,9.58c6.17.26,13.17-1.7,13.17-11.94,0-16.87-72.62-709.82-83.86-817-.63-6-1.19-11.91-1.32-17.9-.16-7.16-2.51-21-18.85-17l-.42.12A11.43,11.43,0,0,0,7268.9,6771.45Z" transform="translate(-6239 -6659)"/><path class="cls-6" d="M7448.91,6756.4c-8.17-3.57-17.05,3.89-16.16,12.77l82.62,825.35c.34,3.41.45,6.83.6,10.25.21,4.6,2.33,13,14.88,13.82,0,0,12.56,5.55,11.31-16.8S7457.75,6775,7457.75,6775,7458.24,6760.48,7448.91,6756.4Z" transform="translate(-6239 -6659)"/><polygon class="cls-6" points="1062.04 166.1 1199.35 166.1 1202.16 194.18 1062.04 194.18 1062.04 166.1"/><polygon class="cls-6" points="1071.25 254.09 1213.83 254.09 1213.83 281 1074.06 281 1071.25 254.09"/><polygon class="cls-6" points="1081.23 349.6 1222.5 349.6 1222.5 374.03 1081.23 376.39 1081.23 349.6"/><polygon class="cls-6" points="1086.24 431.58 1233.54 431.58 1233.54 458.39 1092.95 462.03 1086.24 431.58"/><rect class="cls-6" x="1094.78" y="519.88" width="146.64" height="29.96"/><polygon class="cls-6" points="1103.45 606.61 1252.46 603.46 1256.4 631.05 1098.72 631.05 1103.45 606.61"/><polygon class="cls-6" points="1111.33 706.74 1261.13 706.74 1261.13 725.66 1111.33 730.39 1111.33 706.74"/><rect class="cls-6" x="1123.16" y="793.46" width="144.28" height="23.65"/><rect class="cls-6" x="1131.83" y="879.4" width="150.59" height="29.96"/><polygon class="cls-4" points="1228.85 1003.95 1331.03 979.6 1344.32 989.06 1239.14 1018.49 1228.85 1003.95"/><polygon class="cls-4" points="1284.65 1041.84 1394.51 1017.49 1408.79 1026.95 1295.71 1056.38 1284.65 1041.84"/><path class="cls-7" d="M7085.71,7555.26a12.31,12.31,0,0,0-8.8,3.77,98.79,98.79,0,0,0-9,11.21c-8.84,12.44-28.65,13.55-28.65,13.55a434.73,434.73,0,0,1-49.15-4.42,69.65,69.65,0,0,0-43.77,7.35l-1.17.65-6.76,5.68s17.78,13.07,41.56,14.4,34.62-8.14,68.82-5.89c0,0,12.85.78,29.12,21.89a13.1,13.1,0,0,0,10.45,5.11l27.13-.18a3.31,3.31,0,0,0,3.29-3.33l-.42-65.4a4.59,4.59,0,0,0-4.62-4.57Z" transform="translate(-6239 -6659)"/><path d="M7174.17,7562.6a14.25,14.25,0,0,0-10.06-6.6,121.68,121.68,0,0,0-25.45-1.08c-17,1.22-24.95.16-24.95.16l-1.77,73.33s26.87-.88,38.62-.25,21.62-.05,22.54-1.6,3.66-36.48,1.07-64Z" transform="translate(-6239 -6659)"/><path class="cls-8" d="M6529.67,7589.55s-8.23.94-12.29,7-29,42.24-29,42.24-2.29,8.08,16.8,12h154s17.75-3,17.75-10.74l-24.66-42.65a24.74,24.74,0,0,0-8-7.85C6639.24,7586.84,6529.67,7589.55,6529.67,7589.55Z" transform="translate(-6239 -6659)"/><path class="cls-9" d="M6522.44,7613.08s.57,9.24,28.89,14.44,84.37,3.47,91.31-14.44c6.35-16.41-39.15-187.38-46.87-216.08a7.78,7.78,0,0,0-5.36-5.46c-5.86-1.66-15-1.49-18.92,3.53-4.6,5.93-33.15,141.49-44.45,195.8C6524.19,7604.55,6522.44,7613.08,6522.44,7613.08Z" transform="translate(-6239 -6659)"/><path class="cls-8" d="M6795.32,7589.55s-8.24.94-12.3,7-29,42.24-29,42.24-2.29,8.08,16.8,12h153.94s17.75-3,17.75-10.74l-24.65-42.65a24.83,24.83,0,0,0-8.06-7.85C6904.88,7586.84,6795.32,7589.55,6795.32,7589.55Z" transform="translate(-6239 -6659)"/><path class="cls-9" d="M6788.08,7613.08s.58,9.24,28.89,14.44,84.37,3.47,91.31-14.44c6.35-16.41-39.15-187.38-46.87-216.08a7.75,7.75,0,0,0-5.36-5.46c-5.86-1.66-15-1.49-18.92,3.53-4.59,5.93-33.15,141.49-44.45,195.8C6789.83,7604.55,6788.08,7613.08,6788.08,7613.08Z" transform="translate(-6239 -6659)"/><path d="M6451.29,6769.56q3.47,0,4.05,4.34v201.43q-.59,4.62-4.05,4.62-3.18,0-3.47-4v-20.23l-.29-8.38c0-1.35-.1-4.92-.28-10.7v-8.38L6447,6919q-.59-25.15-.58-35v-3.47h-35.84q-6.06,0-14.74-.29l-15.31.29q-1.45,80.05-3.76,93.34c-.2,1.36-1.35,2.51-3.47,3.47q-4.34,1.74-12.43,1.74-12.42-.3-9.24-84.1,1.44-78.61,1.73-104,0-15,4.05-19.08,2.6-2.59,12.42-2.31,5.79,0,7.81,6.36a40.15,40.15,0,0,1,1.44,6.65l.87,7.22q2,15,.86,82.66,13.59,0,29.77.28,32.09.3,36.13.29.28-22.53.86-63,.29-33.23.29-36.41Q6448.11,6769.28,6451.29,6769.56Z" transform="translate(-6239 -6659)"/><path d="M6585.67,6795.86q2,15.9-.29,68.49-.59,9-1.15,19.66l-.58,8.95-.29,8.1q-.87,17.63-.87,20.52,0,26.58,2.31,40.17.87,4.34,1.74,7.51l.87,2,.28,1.74c.39,2.31-1.25,3.57-4.91,3.75q-11.85,0-18.21-14.73-4.9-11.56-5.78-30.93-2.31,9-4.91,16.19-10.7,30.63-26.88,31.79h-3.17l-4.05-.29a47.3,47.3,0,0,1-10.12-2.89q-13.86-6.36-22-22.83-7.23-14.74-8.67-40.17-.58-8.67-.58-20.52v-9.54l.29-8.67a211.7,211.7,0,0,1,2.6-30.06q2-13,5.49-28,5.79-24.27,21.1-37.28,11.85-10.11,23.7-10.12,21.09,0,29.48,44.22a115.75,115.75,0,0,1,2.31,14.16l1.73-31.79v-4.62c.19-2.31.39-4.62.58-6.94q1.16-9.54,2.89-12.42,2.88-4.92,8.38.86Q6583.65,6778.82,6585.67,6795.86Zm-37,149.7q11.26-31.79,11.27-73.69,0-36.71-4.05-58.09-3.46-17.62-10.69-28.9-6.93-10.7-13.58-10.69-14.16,0-20.52,46a390.58,390.58,0,0,0-3.76,51.73q0,40.74,6.94,69.07,6.93,28.61,17.34,28.61Q6540.3,6969.55,6548.68,6945.56Z" transform="translate(-6239 -6659)"/><path d="M6709.65,6781.7q6.08,13.88,5.49,54.62,0,12.43-.86,32.37l-.29,7.51-.29,6.94c-.2,4.82-.29,8.67-.29,11.56q-.28,14.73.29,42.19,0,10.13.29,19.65,0,8.4.29,12.14.29,8.67-8.1,9-3.75.28-10.11-2.31a35.06,35.06,0,0,1-8.09-4.91q-2.89-2.9-3.18-9.54-.87-16.19-.29-57.51,0-15.31.58-29.77,0-13.29.29-17.63c0-.76.09-2.79.29-6.07l.28-4.62.29-5.2q.87-13.87.87-24,.57-31.79-3.18-31.79-6.36,0-26,69.36-8.67,30.93-11.56,73.41-.87,14.16-1.15,28.61v15.6q.28,9.26-12.72,6.65-15-2.88-16.47-5.49-2.33-4.05-2.32-64.74,0-54.33-4.33-133.51,0-2.89,7.8-2.32a36.46,36.46,0,0,1,12.72,3.18c5.2,2.31,8,4.15,8.38,5.49.38.78.58,2.51.58,5.21v10.69q.87,19.37,3.18,84.39,9-40.17,16.47-65.61,2.88-9.24,5.49-16.76.87-2.88,2-5.78l.87-2,.58-2q6.06-15.62,20.81-18.21Q6703.29,6767.55,6709.65,6781.7Z" transform="translate(-6239 -6659)"/><path d="M6829.59,6873c2.11,0,3.27,1,3.46,2.89q.58,7.82-1.15,22.84-1.15,11.27-3.18,22.25a146.35,146.35,0,0,1-7.51,26.59q-11.56,30.63-29.48,31.79a25.79,25.79,0,0,1-7.52-.58,40.32,40.32,0,0,1-10.11-3.76q-13.87-6.93-22.83-23.7-8.1-15.32-11-39.3-.87-9.24-1.45-20.23v-9.25l-.29-8.67a178.34,178.34,0,0,1,3.18-30.34q2.31-12.72,6.07-28,6.07-24.27,22.83-37.57,13.29-10.11,26-10.11,15.6,0,26.59,25.14a2.26,2.26,0,0,1-2,2l-2.32.58c-.77,0-1.25-.19-1.44-.58q-9.54-21.67-20.81-21.67-17.05,0-24,47.39l-1.73,11.85-1.73,13.3q-1.45,15.31-1.45,27.74,0,40.17,8.67,68.21,8.67,27.16,20.23,27.16,9.24,0,18.21-22.83,4.33-11.27,7.8-30.34a162.6,162.6,0,0,0,2.31-19.08q.59-4.34.87-9.25.29-3.47.29-6.93H6805q-4.34-.59-4.33-4.05-.3-3.18,4-3.18Q6807.63,6873.31,6829.59,6873Z" transform="translate(-6239 -6659)"/><path d="M6980.15,6765.81q21.68,0,30.35,45.08,4.34,22.54,4.33,60.4,0,43.94-11.85,77.45-11,31.22-27.45,32.37h-3.18l-4.05-.29a42.74,42.74,0,0,1-10.69-3.18q-13.87-6.06-22.25-23.12-7.53-15.32-9-41-.58-9-.58-21.09v-9.83l.29-8.67A202,202,0,0,1,6929,6843q2-13.29,5.49-28.61,5.78-24.85,21.39-38.15Q6968,6765.8,6980.15,6765.81Zm17.63,180.91q11.27-32.37,11.27-75.43,0-37.56-4-59.25-3.48-17.91-11-29.76-6.93-10.7-13.87-10.7-14.44,0-20.81,46.82a383.55,383.55,0,0,0-4,52.89q0,41.91,7.22,70.8,6.94,29.2,17.63,29.19Q6989.11,6971.28,6997.78,6946.72Z" transform="translate(-6239 -6659)"/><path d="M7136.21,6781.7q6.07,13.88,5.49,54.62,0,12.43-.86,32.37l-.29,7.51-.29,6.94c-.2,4.82-.29,8.67-.29,11.56q-.3,14.73.29,42.19,0,10.13.29,19.65,0,8.4.29,12.14.28,8.67-8.1,9c-2.5.19-5.88-.58-10.11-2.31a35.06,35.06,0,0,1-8.09-4.91q-2.9-2.9-3.18-9.54-.87-16.19-.29-57.51,0-15.31.58-29.77,0-13.29.29-17.63c0-.76.09-2.79.28-6.07l.29-4.62.29-5.2q.87-13.87.87-24,.57-31.79-3.18-31.79-6.36,0-26,69.36-8.67,30.93-11.56,73.41-.87,14.16-1.16,28.61v15.6q.28,9.26-12.71,6.65-15-2.88-16.47-5.49-2.33-4.05-2.32-64.74,0-54.33-4.33-133.51,0-2.89,7.8-2.32a36.46,36.46,0,0,1,12.72,3.18c5.2,2.31,8,4.15,8.38,5.49.38.78.58,2.51.58,5.21v10.69q.85,19.37,3.18,84.39,9-40.17,16.47-65.61,2.88-9.24,5.49-16.76.87-2.88,2-5.78l.87-2,.58-2q6.06-15.62,20.81-18.21Q7129.85,6767.55,7136.21,6781.7Z" transform="translate(-6239 -6659)"/><path d="M7171.18,6979.09q-5.2-1.45-9.25-6.94-3.47-4.62-4-8.09-.3-2.6,3.75-4.34A25.8,25.8,0,0,1,7170,6958q5.2,0,11.85,7.22a10.63,10.63,0,0,1,2.31,4.92c.39,2.5.19,4.43-.57,5.78a7.42,7.42,0,0,1-4,3.47C7177.25,6980.34,7174.45,6980.24,7171.18,6979.09Zm7.22-32.95q-11.55-4.91-13.87-13-1.44-5.49-.86-28.9,0-6.36.28-26.88.29-6.95.29-19.65l.29-20.81q.87-53.17,1.16-56.36a27.5,27.5,0,0,1,2-8.09q1.74-3.75,3.76-2.6l1.73.58,1.74.87,4.91,2.31q6.34,3.47,9.25,6.93,1.44,1.74,2,77.17.29,38.43-2,77.16Q7188.8,6950.19,7178.4,6946.14Z" transform="translate(-6239 -6659)"/><path d="M6399.45,7028.31c.12-.29.4-.14.86.43l.6.77.52.69.17.35.26.51a11.2,11.2,0,0,1,.26,2.75,160.51,160.51,0,0,1-2.07,18.15,194.86,194.86,0,0,1-5.93,26.49q-1.38,4.73-2.75,8.34a17.6,17.6,0,0,1-1.46,3.44c-.23.29-1.09.4-2.58.34l-1.9-.08h-1.89c-.51.05-1.09-.35-1.72-1.21l-.6-1.11-.17-.43-.17-.35-.69-2c-.4-1.2-.83-2.52-1.29-3.95q-1.82-5.85-2.5-8.69t-1.29-6.45l-.34,1.38-.26.86-.26,1.12c-.28,1-.6,1.95-.94,2.92-.81,2.75-1.64,5.25-2.5,7.48q-3.6,10.07-6,11.1-3.69,1.71-6.45-2.33-5.16-11.94-8.34-36.55-1-7.81-1.72-15.91c-.17-1.72-.31-3.35-.43-4.9a12,12,0,0,0-.08-1.46v-.6c0-.23,1.77-.29,5.33-.17a2.43,2.43,0,0,1,2.32,1.8l.34,1.64.35,1.63c.4,1.84.83,4.47,1.29,7.91l.34,2.24.35,2.49c.34,1.95.65,3.82.94,5.59q.53,3.18,1.29,8.52l.69,4.55.69,4.48q1.54,10.57,2.06,12.29c.46,1.44,1,2.24,1.72,2.41s1.15-.2,1.55-1.12,1.55-4.12,3.44-10,3-9.32,3.27-10.41a3.52,3.52,0,0,1,.94-1.8q.34-.53,5.77-.09a3,3,0,0,1,2.23,1.72l.69,1.38.17.68.17.52q3.87,15.48,5,17.37a.71.71,0,0,0,.78.35.63.63,0,0,0,.6-.43,22,22,0,0,0,1-2.5c.4-1.32.86-2.86,1.38-4.64q1.89-7.14,3.87-18.15,1.37-7.65,2.15-13.84c.4-3.33.68-6.31.86-8.95.05-1,.08-2,.08-2.92Z" transform="translate(-6239 -6659)"/><path d="M6433.34,7031.41a49.8,49.8,0,0,0-6.8.17l-2.06.08-1.89.09c-1.44.06-2.5.09-3.19.09h-1.54l-2-.09h-4.39a22.05,22.05,0,0,1,.52,7.57q-.26,9.47-.52,20H6417l4.21.09c.86,0,1.26.34,1.2,1s-.43,1-1.29,1.12h-9.71q-.52,18.91-.78,23.3a14,14,0,0,1-.43,3.1c2,.06,3.81.08,5.42.08,2.18.06,3.84.06,5,0,2.35-.11,5.19-.2,8.51-.25q5.41-.09,5.94.17a1.31,1.31,0,0,1,.68.69,1.06,1.06,0,0,1,0,.86c-.17.46-1,.71-2.4.77q-1.91.09-6.88.17c-3.39.06-5.85.09-7.4.09h-5.5c-2.76,0-4.59,0-5.51-.09a5.42,5.42,0,0,1-2.41-.26,3.73,3.73,0,0,1-2.32-2.75,12.11,12.11,0,0,1-.43-2.06l-.26-2.15q-.6-5,.35-27.87.94-21.93,1.63-25.62c.06-.46.86-.69,2.41-.69a6.23,6.23,0,0,1,.86.08h1.63l2.67.18,3,.08c2.41.06,4.24.06,5.5,0l3.87-.17c1.72-.06,3.24-.11,4.56-.17a40.77,40.77,0,0,1,5.94,0,1.32,1.32,0,0,1,.68.77,1.06,1.06,0,0,1,0,.86l-.08.35-.26.25-.43.26Z" transform="translate(-6239 -6659)"/><path d="M6493.88,7036.57q.6,4.73-.09,20.38c-.11,1.78-.23,3.73-.34,5.85l-.17,2.66-.09,2.41c-.17,3.5-.26,5.53-.26,6.11a76.67,76.67,0,0,0,.69,12c.17.86.34,1.61.52,2.24l.25.6.09.51c.11.69-.37,1.07-1.46,1.12q-3.53,0-5.42-4.38a27,27,0,0,1-1.72-9.21q-.69,2.67-1.46,4.82-3.18,9.12-8,9.46h-.95l-1.2-.09a12.19,12.19,0,0,1-9.55-7.65q-2.15-4.38-2.58-12-.17-2.58-.17-6.11v-2.84l.09-2.58a63.63,63.63,0,0,1,.77-8.94q.6-3.87,1.64-8.34c1.14-4.82,3.24-8.52,6.27-11.1a11,11,0,0,1,7.06-3q6.27,0,8.77,13.16a37,37,0,0,1,.69,4.21l.51-9.46V7035c.06-.69.12-1.38.17-2.07a11.12,11.12,0,0,1,.86-3.69c.58-1,1.41-.89,2.5.25Q6493.28,7031.49,6493.88,7036.57Zm-11,44.54a65.39,65.39,0,0,0,3.35-21.93,97.7,97.7,0,0,0-1.2-17.28,24.77,24.77,0,0,0-3.18-8.6q-2.07-3.18-4-3.18-4.22,0-6.11,13.67a115.67,115.67,0,0,0-1.12,15.39,87.52,87.52,0,0,0,2.07,20.56q2.05,8.51,5.16,8.51Q6480.38,7088.25,6482.87,7081.11Z" transform="translate(-6239 -6659)"/><path d="M6517.79,7064.34a4.61,4.61,0,0,0,.43.86l.6,1.29,1.46,3.27q2.15,4.39,3.27,6.37,1.71,3.09,3.95,7.56a59,59,0,0,1,2.58,5.34,1.6,1.6,0,0,1-.34,1,1,1,0,0,1-.77.43c-.46,0-1.06-.63-1.81-1.89s-1.72-3.19-3.27-6.11-2.64-5.25-3.27-6.62c-.28-.52-.68-1.32-1.2-2.41l-.77-1.46-.69-1.55a51.7,51.7,0,0,1-2.41-5,22,22,0,0,1-3.7,1.38,22.56,22.56,0,0,1-2.66.51q-.34,22.55-.86,23a2.45,2.45,0,0,1-1.38,0,14,14,0,0,1-2.32-.77c-2.18-1-3.3-2.09-3.36-3.36v-26.74q0-23.82-.43-27.18c-.22-1.77-.05-2.92.52-3.44a1.28,1.28,0,0,1,.77-.26l.78.09c4.36,1.38,6.56,3,6.62,4.9q-.09,2.23-.09,9.29,1.56-7.56,3.44-10,3.71-4.72,9.21-3.52a7.74,7.74,0,0,1,3.69,2.49,10.54,10.54,0,0,1,2.33,3.61,17.76,17.76,0,0,1,.94,3.7,31,31,0,0,1,.26,6.19q-.44,8.78-5.5,14.11A30.15,30.15,0,0,1,6517.79,7064.34Zm-8.52-5.5-.08,5.76a21.18,21.18,0,0,0,2-.94,14.36,14.36,0,0,0,2.23-1.38,14.81,14.81,0,0,0,4.3-4.39,27.7,27.7,0,0,0,3.53-13.41q.42-8.34-3.19-12-2.84-2.91-5.5,7.4-1,4-2,9.63C6510.1,7052.48,6509.67,7055.57,6509.27,7058.84Z" transform="translate(-6239 -6659)"/><path d="M6567.58,7031.41a49.66,49.66,0,0,0-6.79.17l-2.07.08-1.89.09q-2.15.09-3.18.09h-1.55l-2-.09h-4.38a22.08,22.08,0,0,1,.51,7.57q-.26,9.47-.51,20h5.5l4.21.09c.86,0,1.26.34,1.21,1s-.43,1-1.29,1.12h-9.72q-.51,18.91-.77,23.3a14.61,14.61,0,0,1-.43,3.1c2,.06,3.81.08,5.41.08,2.18.06,3.84.06,5,0,2.35-.11,5.19-.2,8.52-.25q5.41-.09,5.93.17a1.29,1.29,0,0,1,.69.69,1.15,1.15,0,0,1,0,.86c-.17.46-1,.71-2.41.77-1.26.06-3.56.12-6.88.17s-5.85.09-7.4.09h-5.5c-2.75,0-4.59,0-5.5-.09a5.39,5.39,0,0,1-2.41-.26,3.71,3.71,0,0,1-2.32-2.75,10.42,10.42,0,0,1-.43-2.06l-.26-2.15q-.6-5,.34-27.87.95-21.93,1.64-25.62c.05-.46.86-.69,2.4-.69a6.23,6.23,0,0,1,.86.08h1.64l2.66.18,3,.08c2.41.06,4.25.06,5.51,0l3.87-.17c1.72-.06,3.24-.11,4.56-.17a40.55,40.55,0,0,1,5.93,0,1.3,1.3,0,0,1,.69.77,1.15,1.15,0,0,1,0,.86l-.09.35-.26.25c-.28.18-.43.26-.43.26Z" transform="translate(-6239 -6659)"/><path d="M6628.73,7034.85q-1.12,18.82-1.12,41.71a38.73,38.73,0,0,0,.43,6c.23,1.32.51,2.66.86,4,.63,2.23.83,3.58.6,4-.35.69-1.78,1-4.3.86-1.09-.06-2.15-.83-3.18-2.32a15.68,15.68,0,0,1-2.41-7.23q-.34-3.35-.26-13.67l-1.12,3.53q-3.18,12.72-8,17.45a10.08,10.08,0,0,1-3.44,2.15,11.34,11.34,0,0,1-1.29.26h-.85l-.69-.08-.86-.26a5,5,0,0,1-2.07-1.29q-2.67-2.58-4.47-8.77-1.64-6-.69-25.55c.12-2.23.29-4.7.52-7.39.11-2,.26-4.16.43-6.62q.6-7.74.6-8.6c.12-2.53.66-3.7,1.63-3.53a6.4,6.4,0,0,1,1.64.69l1,.6,1.12.52a3.2,3.2,0,0,1,1.81,2.4l.08,1.64-.08,1.63c0,1.55,0,3.33-.09,5.33q-.09,3.61-.09,7.4c-.05,6.42,0,12.18.18,17.29q.6,21.84,3.09,21.32,1.2-.26,3.27-3.95a33.67,33.67,0,0,0,3.18-7.57q.78-2.49,2.41-7.65,1.2-4,2.92-9.21.52-22.35,1.21-27.6c.34-2.18.89-3.38,1.63-3.61a8.9,8.9,0,0,1,3.35.68C6627.61,7030.15,6628.61,7031.92,6628.73,7034.85Z" transform="translate(-6239 -6659)"/><path d="M6664.59,7032.35q1.8,4.13,1.63,16.26,0,3.69-.26,9.63l-.08,2.23-.09,2.07c-.06,1.43-.09,2.58-.09,3.44-.05,2.92,0,7.11.09,12.55q0,3,.09,5.85c0,1.67,0,2.87.08,3.61.06,1.72-.74,2.61-2.41,2.67a7,7,0,0,1-3-.69,10,10,0,0,1-2.4-1.46,4.15,4.15,0,0,1-1-2.84q-.25-4.82-.09-17.11,0-4.56.18-8.86c0-2.64,0-4.39.08-5.25,0-.22,0-.83.09-1.8l.08-1.38.09-1.55q.26-4.12.26-7.13c.11-6.31-.2-9.46-.95-9.46q-1.89,0-7.74,20.64a108.81,108.81,0,0,0-3.44,21.84c-.17,2.81-.29,5.65-.34,8.51v4.65q.08,2.74-3.79,2c-3-.58-4.61-1.12-4.9-1.64q-.69-1.2-.69-19.26,0-16.17-1.29-39.73c0-.58.78-.81,2.33-.69a10.82,10.82,0,0,1,3.78.94c1.55.69,2.38,1.24,2.49,1.64a4.08,4.08,0,0,1,.18,1.55v3.18q.25,5.76.94,25.11,2.67-12,4.9-19.52c.58-1.84,1.12-3.5,1.64-5,.17-.57.37-1.15.6-1.72l.26-.6.17-.6c1.2-3.1,3.27-4.91,6.19-5.42S6663.32,7029.54,6664.59,7032.35Z" transform="translate(-6239 -6659)"/><path d="M6694.26,7029.26q11.94,4,13.67,22.27l.17,1.2.09,1.47c.11,1.26.17,2.46.17,3.61a45.91,45.91,0,0,1-.77,9.46,39.58,39.58,0,0,1-12.56,22.27q-4.21,3.36-8.34-.86-1.81-1.89-.43-2.92a31.45,31.45,0,0,0,12.47-18.41,43,43,0,0,0,.94-8.6q.09-1.55,0-3.69V7052a33.29,33.29,0,0,0-2.15-12.3q-2.49-6.61-6.1-7.48-4.47-1-7.74,15.91a132.68,132.68,0,0,1,.34,13.33l-.6,24.17q-.6,6.1-5,5.76c-2.12-.17-3.3-1.75-3.52-4.73q.26-5.34-.69-28.9-.35-8.85-.78-16.85c-.23-5.11-.4-8.23-.51-9.38-.23-2.46.28-3.61,1.55-3.44.57.12,1.69.32,3.35.6q3.53.69,5.16,12,2.67-10.23,7.22-11.43l.09-.09h.26l.51-.09.61-.08A6.71,6.71,0,0,1,6694.26,7029.26Z" transform="translate(-6239 -6659)"/><path d="M6743.79,7031.41a49.66,49.66,0,0,0-6.79.17l-2.07.08-1.89.09q-2.15.09-3.18.09h-1.55l-2-.09H6722a22.08,22.08,0,0,1,.51,7.57q-.26,9.47-.51,20h5.5l4.22.09c.85,0,1.26.34,1.2,1s-.43,1-1.29,1.12h-9.72q-.51,18.91-.77,23.3a14,14,0,0,1-.43,3.1c2,.06,3.81.08,5.42.08,2.17.06,3.84.06,5,0,2.35-.11,5.19-.2,8.52-.25q5.41-.09,5.93.17a1.29,1.29,0,0,1,.69.69,1.15,1.15,0,0,1,0,.86c-.17.46-1,.71-2.41.77q-1.89.09-6.88.17c-3.38.06-5.85.09-7.39.09H6724c-2.75,0-4.59,0-5.5-.09a5.39,5.39,0,0,1-2.41-.26,3.73,3.73,0,0,1-2.32-2.75,10.42,10.42,0,0,1-.43-2.06l-.26-2.15q-.6-5,.34-27.87.94-21.93,1.64-25.62c.05-.46.86-.69,2.41-.69a6.24,6.24,0,0,1,.85.08H6720l2.66.18,3,.08c2.4.06,4.24.06,5.5,0l3.87-.17c1.72-.06,3.24-.11,4.56-.17a40.55,40.55,0,0,1,5.93,0,1.3,1.3,0,0,1,.69.77,1.15,1.15,0,0,1,0,.86l-.09.35-.26.25c-.28.18-.43.26-.43.26Z" transform="translate(-6239 -6659)"/><path d="M6767.7,7064.34a5.31,5.31,0,0,0,.43.86l.6,1.29c.52,1.15,1,2.24,1.46,3.27q2.15,4.39,3.27,6.37c1.15,2.06,2.46,4.58,4,7.56q2.49,4.91,2.58,5.34a1.6,1.6,0,0,1-.35,1,1,1,0,0,1-.77.43c-.46,0-1.06-.63-1.81-1.89s-1.72-3.19-3.27-6.11-2.63-5.25-3.26-6.62c-.29-.52-.69-1.32-1.21-2.41l-.77-1.46-.69-1.55a51.7,51.7,0,0,1-2.41-5,22,22,0,0,1-3.7,1.38,22.56,22.56,0,0,1-2.66.51q-.35,22.55-.86,23a2.44,2.44,0,0,1-1.38,0,14,14,0,0,1-2.32-.77c-2.18-1-3.3-2.09-3.35-3.36v-26.74q0-23.82-.43-27.18c-.23-1.77-.06-2.92.51-3.44a1.28,1.28,0,0,1,.78-.26l.77.09c4.36,1.38,6.56,3,6.62,4.9-.06,1.49-.08,4.59-.08,9.29q1.55-7.56,3.44-10,3.69-4.72,9.2-3.52a7.81,7.81,0,0,1,3.7,2.49,10.65,10.65,0,0,1,2.32,3.61,17.76,17.76,0,0,1,.94,3.7,31,31,0,0,1,.26,6.19q-.44,8.78-5.5,14.11A29.87,29.87,0,0,1,6767.7,7064.34Zm-8.52-5.5-.08,5.76a21.18,21.18,0,0,0,2-.94,14.36,14.36,0,0,0,2.23-1.38,14.69,14.69,0,0,0,4.3-4.39,27.59,27.59,0,0,0,3.53-13.41q.42-8.34-3.18-12-2.85-2.91-5.51,7.4-1,4-2,9.63C6760,7052.48,6759.58,7055.57,6759.18,7058.84Z" transform="translate(-6239 -6659)"/><path d="M6831.25,7071.65c.52,0,.77.15.77.43a63.25,63.25,0,0,1-2.4,9.46q-3.2,9.12-8,9.46h-.95l-1.2-.08a12.07,12.07,0,0,1-9.63-7.66q-2.16-4.47-2.58-12-.18-2.58-.18-6.1v-2.84l.09-2.58a64.06,64.06,0,0,1,.77-9c.46-2.58,1-5.36,1.72-8.34q1.64-7.31,6.2-11.18a11.17,11.17,0,0,1,7.13-3q4.22,0,7.23,7.39c-.12.41-.29.64-.52.69l-.69.09a.48.48,0,0,1-.34-.09q-2.67-6.45-5.68-6.45-4.21,0-6.1,13.68a117.66,117.66,0,0,0-1.12,15.48,91.8,91.8,0,0,0,2,20.64q2.15,8.6,5.24,8.6,2.58,0,5.08-7.14a56.77,56.77,0,0,0,2.23-9C6830.36,7071.71,6830.68,7071.6,6831.25,7071.65Z" transform="translate(-6239 -6659)"/><path d="M6852.32,7027.62q6.45,0,9,13.42a99.27,99.27,0,0,1,1.29,18,69.06,69.06,0,0,1-3.52,23.05q-3.27,9.28-8.17,9.63H6850l-1.2-.08a13.12,13.12,0,0,1-3.19-.95,13.61,13.61,0,0,1-6.62-6.88q-2.23-4.56-2.66-12.21-.18-2.67-.18-6.28v-2.92l.09-2.58a60.75,60.75,0,0,1,.86-9.21c.4-2.63.95-5.47,1.63-8.51q1.73-7.39,6.37-11.35A11.11,11.11,0,0,1,6852.32,7027.62Zm5.25,53.84a68.39,68.39,0,0,0,3.35-22.45,101.27,101.27,0,0,0-1.2-17.63,25.68,25.68,0,0,0-3.27-8.86c-1.38-2.12-2.75-3.18-4.13-3.18q-4.31,0-6.19,13.93a114.71,114.71,0,0,0-1.2,15.74,87.86,87.86,0,0,0,2.15,21.07q2.06,8.68,5.24,8.69Q6855,7088.77,6857.57,7081.46Z" transform="translate(-6239 -6659)"/><path d="M6898.76,7032.35q1.82,4.13,1.64,16.26,0,3.69-.26,9.63l-.09,2.23-.08,2.07c-.06,1.43-.09,2.58-.09,3.44q-.09,4.38.09,12.55c0,2,0,4,.08,5.85,0,1.67,0,2.87.09,3.61,0,1.72-.75,2.61-2.41,2.67a7,7,0,0,1-3-.69,10.33,10.33,0,0,1-2.41-1.46,4.15,4.15,0,0,1-.94-2.84q-.27-4.82-.09-17.11,0-4.56.17-8.86,0-4,.09-5.25c0-.22,0-.83.08-1.8l.09-1.38.08-1.55c.18-2.75.26-5.13.26-7.13.12-6.31-.2-9.46-.94-9.46q-1.89,0-7.74,20.64a108.81,108.81,0,0,0-3.44,21.84c-.18,2.81-.29,5.65-.35,8.51v4.65q.09,2.74-3.78,2c-3-.58-4.62-1.12-4.9-1.64q-.69-1.2-.69-19.26,0-16.17-1.29-39.73c0-.58.77-.81,2.32-.69a10.77,10.77,0,0,1,3.78.94c1.55.69,2.38,1.24,2.5,1.64a4.39,4.39,0,0,1,.17,1.55v3.18q.26,5.76,1,25.11,2.65-12,4.9-19.52c.57-1.84,1.12-3.5,1.63-5,.18-.57.38-1.15.6-1.72l.26-.6.18-.6q1.8-4.65,6.19-5.42A5.25,5.25,0,0,1,6898.76,7032.35Z" transform="translate(-6239 -6659)"/><path d="M6932.82,7063.4a21.67,21.67,0,0,1,4,9.46c.74,4.36.29,7.91-1.38,10.66a16.77,16.77,0,0,1-4.81,5.42q-3.87,2.58-10.24,2.58a15,15,0,0,1-10.06-3.27,10.8,10.8,0,0,1-4-6.28,25.53,25.53,0,0,1,.26-9.46,1,1,0,0,1,1.29-.77,1.21,1.21,0,0,1,.78.52,3.23,3.23,0,0,1,.08.68l-.17.69-.09.78c-.11.68-.2,1.34-.25,2a18.08,18.08,0,0,0,.25,4.73q1.29,6.12,7.66,7.49a11.21,11.21,0,0,0,9.89-2.15,9.17,9.17,0,0,0,3.52-8q-.26-5-4.21-11.44-1.45-2.4-3.53-5.25l-1.8-2.32-1.64-2.15a42.66,42.66,0,0,1-5.67-9.89q-2.58-6.36-1.21-10.83a11,11,0,0,1,4.82-6.63,10.36,10.36,0,0,1,6.71-1.37q8.59,1,9.2,8.34,0,.51-.69.69c-.69.17-1.14-.17-1.37-1l-.09-.18-.09-.25-.34-.69a7.52,7.52,0,0,0-1.29-2,7.09,7.09,0,0,0-5.59-2.75q-3.61,0-4.9,3.87a8.9,8.9,0,0,0-.09,6.1Q6920.09,7047.23,6932.82,7063.4Z" transform="translate(-6239 -6659)"/><path d="M6971.69,7029.51c.8,0,1.2.32,1.2.95s-.49,1.09-1.29,1.2h-11.26q.42,5.51.51,26.41.18,19.35,0,25.37a17,17,0,0,1-.77,5.41,3,3,0,0,1-2.5,1.47l-1.54.17a3.07,3.07,0,0,1-1.55-.35c-1-.68-1.61-2.43-1.72-5.24s-.17-9.89-.17-21.07l.08-13.33v-10.75a60,60,0,0,1,.17-8.09h-10.92q-1.29-.16-1.29-1.2c0-.63.4-.95,1.21-.95.51,0,2.6,0,6.27-.08l17.46-.09C6969.14,7029.46,6971.17,7029.51,6971.69,7029.51Z" transform="translate(-6239 -6659)"/><path d="M6993.19,7064.34a4.61,4.61,0,0,0,.43.86l.6,1.29,1.46,3.27q2.14,4.39,3.27,6.37,1.71,3.09,3.95,7.56a59,59,0,0,1,2.58,5.34,1.6,1.6,0,0,1-.34,1,1,1,0,0,1-.77.43c-.46,0-1.06-.63-1.81-1.89s-1.72-3.19-3.27-6.11-2.64-5.25-3.27-6.62c-.28-.52-.68-1.32-1.2-2.41l-.77-1.46-.69-1.55a51.7,51.7,0,0,1-2.41-5,22,22,0,0,1-3.7,1.38,23,23,0,0,1-2.66.51q-.35,22.55-.86,23a2.45,2.45,0,0,1-1.38,0,13.69,13.69,0,0,1-2.32-.77c-2.18-1-3.3-2.09-3.36-3.36v-26.74q0-23.82-.43-27.18c-.22-1.77-.05-2.92.52-3.44a1.28,1.28,0,0,1,.77-.26l.78.09c4.36,1.38,6.56,3,6.62,4.9q-.09,2.23-.09,9.29,1.56-7.56,3.44-10,3.71-4.72,9.21-3.52a7.74,7.74,0,0,1,3.69,2.49,10.54,10.54,0,0,1,2.33,3.61,17.76,17.76,0,0,1,.94,3.7,31,31,0,0,1,.26,6.19q-.44,8.78-5.5,14.11A30.15,30.15,0,0,1,6993.19,7064.34Zm-8.52-5.5-.08,5.76a21,21,0,0,0,2-.94,14,14,0,0,0,2.24-1.38,14.81,14.81,0,0,0,4.3-4.39,27.7,27.7,0,0,0,3.53-13.41q.42-8.34-3.19-12-2.83-2.91-5.5,7.4-1,4-2,9.63C6985.5,7052.48,6985.07,7055.57,6984.67,7058.84Z" transform="translate(-6239 -6659)"/><path d="M7043.75,7034.85q-1.11,18.82-1.11,41.71a38.73,38.73,0,0,0,.43,6c.22,1.32.51,2.66.86,4,.63,2.23.83,3.58.6,4-.35.69-1.78,1-4.3.86-1.09-.06-2.15-.83-3.18-2.32a15.68,15.68,0,0,1-2.41-7.23q-.35-3.35-.26-13.67l-1.12,3.53q-3.18,12.72-8,17.45a10.08,10.08,0,0,1-3.44,2.15,12.28,12.28,0,0,1-1.29.26h-.86l-.68-.08-.86-.26a5,5,0,0,1-2.07-1.29q-2.67-2.58-4.47-8.77-1.64-6-.69-25.55c.12-2.23.29-4.7.52-7.39.11-2,.26-4.16.43-6.62q.6-7.74.6-8.6c.11-2.53.66-3.7,1.63-3.53a6.4,6.4,0,0,1,1.64.69l1,.6,1.12.52a3.19,3.19,0,0,1,1.8,2.4l.09,1.64-.09,1.63c0,1.55,0,3.33-.08,5.33q-.09,3.61-.09,7.4-.09,9.63.17,17.29.6,21.84,3.1,21.32,1.2-.26,3.27-3.95a34.14,34.14,0,0,0,3.18-7.57q.78-2.49,2.41-7.65,1.2-4,2.92-9.21.52-22.35,1.21-27.6c.34-2.18.88-3.38,1.63-3.61a8.9,8.9,0,0,1,3.35.68C7042.64,7030.15,7043.64,7031.92,7043.75,7034.85Z" transform="translate(-6239 -6659)"/><path d="M7073.85,7071.65c.52,0,.78.15.78.43a63.21,63.21,0,0,1-2.41,9.46q-3.18,9.12-8,9.46h-.94l-1.21-.08a12.1,12.1,0,0,1-9.63-7.66q-2.14-4.47-2.58-12c-.12-1.72-.17-3.75-.17-6.1v-2.84l.08-2.58a62.77,62.77,0,0,1,.78-9q.69-3.87,1.72-8.34,1.63-7.31,6.19-11.18a11.22,11.22,0,0,1,7.14-3q4.21,0,7.22,7.39c-.11.41-.29.64-.51.69l-.69.09a.51.51,0,0,1-.35-.09c-1.77-4.3-3.67-6.45-5.67-6.45q-4.22,0-6.11,13.68a119.41,119.41,0,0,0-1.12,15.48,91.8,91.8,0,0,0,2,20.64q2.14,8.6,5.25,8.6,2.58,0,5.07-7.14a56.72,56.72,0,0,0,2.24-9C7073,7071.71,7073.28,7071.6,7073.85,7071.65Z" transform="translate(-6239 -6659)"/><path d="M7109.29,7029.51c.8,0,1.2.32,1.2.95s-.49,1.09-1.29,1.2h-11.27q.43,5.51.52,26.41.17,19.35,0,25.37a17.27,17.27,0,0,1-.77,5.41,3,3,0,0,1-2.5,1.47l-1.55.17a3.12,3.12,0,0,1-1.55-.35q-1.55-1-1.71-5.24t-.18-21.07l.09-13.33v-10.75a60,60,0,0,1,.17-8.09h-10.92q-1.29-.16-1.29-1.2c0-.63.4-.95,1.2-.95.52,0,2.61,0,6.28-.08l17.46-.09C7106.73,7029.46,7108.77,7029.51,7109.29,7029.51Z" transform="translate(-6239 -6659)"/><path d="M7122.87,7029.94q.44,2.93.6,25.63.09,21.08-.08,27.87-.09,4-.78,5.33a2.88,2.88,0,0,1-2.4,1.55l-1.64.17a3.09,3.09,0,0,1-1.55-.35q-1.55-1-1.72-5.24-.17-4.39-.17-21.33v-13.33q.09-7.39,0-10.92c0-4.59.06-7.25.17-8a2.65,2.65,0,0,1,2.93-2.06C7121.21,7029.2,7122.76,7029.43,7122.87,7029.94Z" transform="translate(-6239 -6659)"/><path d="M7146,7027.62q6.45,0,9,13.42a99.27,99.27,0,0,1,1.29,18,69,69,0,0,1-3.53,23.05q-3.27,9.28-8.17,9.63h-.95l-1.2-.08a12.92,12.92,0,0,1-3.18-.95,13.61,13.61,0,0,1-6.62-6.88c-1.5-3-2.38-7.11-2.67-12.21-.12-1.78-.17-3.87-.17-6.28v-2.92l.08-2.58a60.75,60.75,0,0,1,.86-9.21q.6-3.94,1.64-8.51c1.14-4.93,3.27-8.71,6.36-11.35A11.14,11.14,0,0,1,7146,7027.62Zm5.24,53.84a68.12,68.12,0,0,0,3.36-22.45,101.11,101.11,0,0,0-1.21-17.63,25.68,25.68,0,0,0-3.27-8.86c-1.37-2.12-2.75-3.18-4.12-3.18q-4.31,0-6.2,13.93a114.71,114.71,0,0,0-1.2,15.74,88.37,88.37,0,0,0,2.15,21.07c1.38,5.79,3.12,8.69,5.25,8.69Q7148.66,7088.77,7151.25,7081.46Z" transform="translate(-6239 -6659)"/><path d="M7192.45,7032.35q1.8,4.13,1.63,16.26,0,3.69-.26,9.63l-.08,2.23-.09,2.07c-.06,1.43-.09,2.58-.09,3.44-.05,2.92,0,7.11.09,12.55q0,3,.09,5.85c0,1.67,0,2.87.08,3.61.06,1.72-.74,2.61-2.41,2.67a7,7,0,0,1-3-.69,10,10,0,0,1-2.4-1.46,4.15,4.15,0,0,1-.95-2.84q-.26-4.82-.09-17.11,0-4.56.18-8.86c0-2.64,0-4.39.08-5.25,0-.22,0-.83.09-1.8l.08-1.38.09-1.55q.26-4.12.26-7.13c.11-6.31-.2-9.46-.95-9.46q-1.89,0-7.74,20.64a108.81,108.81,0,0,0-3.44,21.84c-.17,2.81-.29,5.65-.34,8.51v4.65q.07,2.74-3.79,2c-3-.58-4.61-1.12-4.9-1.64q-.69-1.2-.69-19.26,0-16.17-1.29-39.73c0-.58.78-.81,2.33-.69a10.82,10.82,0,0,1,3.78.94c1.55.69,2.38,1.24,2.49,1.64a4.08,4.08,0,0,1,.18,1.55v3.18q.26,5.76.94,25.11,2.67-12,4.9-19.52c.58-1.84,1.12-3.5,1.64-5,.17-.57.37-1.15.6-1.72l.26-.6.17-.6c1.2-3.1,3.27-4.91,6.19-5.42S7191.18,7029.54,7192.45,7032.35Z" transform="translate(-6239 -6659)"/><path d="M6377.13,7144.52a10.9,10.9,0,0,1,4.66,3.18,15.2,15.2,0,0,1,2.87,4.45,24.62,24.62,0,0,1,1.16,4.56,40.6,40.6,0,0,1,.32,7.73q-.53,11-6.89,17.6a34.65,34.65,0,0,1-10.49,7.63,27.8,27.8,0,0,1-4.46,1.49,14.24,14.24,0,0,1-3.28.63q-.44,28.2-1.06,28.83a3.17,3.17,0,0,1-1.7,0,20.58,20.58,0,0,1-3-.95q-4-1.8-4.13-4.24v-33.28q0-29.79-.53-34c-.28-2.19-.07-3.6.64-4.24a1.71,1.71,0,0,1,1.06-.32l.95.11q8.16,2.53,8.16,6c0,1.91,0,5.79-.1,11.66q2-9.44,4.24-12.4Q6370.35,7143,6377.13,7144.52Zm-5.51,35.51q4-6.79,4.45-16.65.53-10.48-3.92-15.05-3.61-3.6-6.89,9.33-1.28,4.88-2.44,12-1,5.51-1.7,11.55l-.1,7.21a23.85,23.85,0,0,0,2.44-1.17,16.21,16.21,0,0,0,2.86-1.69A17.79,17.79,0,0,0,6371.62,7180Z" transform="translate(-6239 -6659)"/><path d="M6433.2,7216.7a1.64,1.64,0,0,1,1,.85,1.38,1.38,0,0,1,0,1.06c-.22.57-1.24.88-3.08,1q-2.33.12-8.48.22t-9,.1h-7c-3.33,0-5.55,0-6.68-.1h-2c-1.55-.07-2.58-.57-3.07-1.49s-.81-3.42-.95-7.31q-.44-7.11,0-34.35.52-27.77,1.16-31.69.1-.63,5.62-.74,3-.1,3.39,1.8.42,1.38.32,10.71v13.35q-.1,9.33-.11,16.54-.21,20.25-.42,26.18a19.35,19.35,0,0,1-.53,4h6.36c2.47.07,4.42.07,5.83,0q4.35-.21,10.39-.32Q6432.67,7216.39,6433.2,7216.7Z" transform="translate(-6239 -6659)"/><path d="M6474.33,7147.06a63.32,63.32,0,0,0-8.37.21l-2.55.11-2.33.1c-1.77.08-3.07.11-3.92.11h-1.91l-2.44-.11h-5.4a27.38,27.38,0,0,1,.63,9.33q-.31,11.67-.63,24.59h6.78c3.11.08,4.84.11,5.19.11,1.06,0,1.56.42,1.49,1.27s-.53,1.24-1.59,1.38h-12q-.63,23.33-.95,28.73a17.78,17.78,0,0,1-.53,3.81c2.47.07,4.7.11,6.67.11q4,.1,6.15,0,4.35-.21,10.5-.32,6.68-.1,7.31.21a1.67,1.67,0,0,1,.85.85,1.38,1.38,0,0,1,0,1.06c-.21.57-1.2.88-3,1-1.56.08-4.38.15-8.48.22s-7.21.1-9.12.1H6450q-5.08,0-6.78-.1a6.88,6.88,0,0,1-3-.32,4.6,4.6,0,0,1-2.86-3.39,13.66,13.66,0,0,1-.53-2.55l-.32-2.65q-.75-6.15.42-34.34,1.17-27,2-31.59c.07-.56,1.06-.85,3-.85a6.68,6.68,0,0,1,1.06.11h2l3.28.21,3.71.11q4.46.1,6.79,0l4.77-.22,5.62-.21a52.81,52.81,0,0,1,7.31,0,1.64,1.64,0,0,1,.85,1,1.38,1.38,0,0,1,0,1.06l-.11.42-.32.32-.53.32Z" transform="translate(-6239 -6659)"/><path d="M6521.92,7153.42q.75,5.84-.1,25.12c-.15,2.19-.29,4.6-.43,7.21l-.21,3.29-.1,3c-.22,4.31-.32,6.82-.32,7.53a94.15,94.15,0,0,0,.85,14.73q.31,1.59.63,2.76l.32.74.11.64c.14.85-.46,1.31-1.81,1.38q-4.35,0-6.67-5.41a33.16,33.16,0,0,1-2.12-11.34q-.85,3.29-1.81,5.93-3.92,11.25-9.85,11.66h-1.17l-1.48-.1a15,15,0,0,1-11.77-9.44q-2.65-5.4-3.18-14.73-.21-3.18-.21-7.53v-3.49l.1-3.18a77,77,0,0,1,1-11q.73-4.77,2-10.28,2.11-8.91,7.74-13.67,4.35-3.72,8.69-3.71,7.74,0,10.81,16.21a40.62,40.62,0,0,1,.85,5.2l.64-11.66v-1.7l.21-2.54a13.74,13.74,0,0,1,1.06-4.56c.71-1.2,1.73-1.1,3.07.32Q6521.19,7147.16,6521.92,7153.42Zm-13.56,54.91q4.13-11.65,4.13-27A121.11,121.11,0,0,0,6511,7160a30.49,30.49,0,0,0-3.93-10.6q-2.53-3.92-5-3.92-5.19,0-7.52,16.85a143.46,143.46,0,0,0-1.38,19,108.44,108.44,0,0,0,2.54,25.33q2.55,10.5,6.36,10.5Q6505.28,7217.13,6508.36,7208.33Z" transform="translate(-6239 -6659)"/><path d="M6563.05,7186.49a26.76,26.76,0,0,1,5,11.66q1.38,8.06-1.69,13.15a20.76,20.76,0,0,1-5.94,6.67q-4.77,3.18-12.61,3.18-7.64,0-12.4-4a13.29,13.29,0,0,1-4.88-7.74,31.23,31.23,0,0,1,.32-11.66q.42-1.27,1.59-1a1.47,1.47,0,0,1,.95.64,3.54,3.54,0,0,1,.11.85l-.21.85-.11,1c-.14.85-.25,1.66-.32,2.44a22,22,0,0,0,.32,5.83q1.59,7.53,9.43,9.22,7.21,1.48,12.19-2.65a11.32,11.32,0,0,0,4.35-9.86q-.31-6.15-5.19-14.1c-1.21-2-2.65-4.13-4.35-6.46l-2.23-2.86-2-2.65a52.55,52.55,0,0,1-7-12.19q-3.18-7.84-1.48-13.36a13.48,13.48,0,0,1,5.94-8.16,12.72,12.72,0,0,1,8.26-1.7q10.61,1.27,11.35,10.28c0,.43-.29.71-.85.85-.85.21-1.42-.21-1.7-1.27l-.1-.21-.11-.32-.42-.85a10.07,10.07,0,0,0-1.59-2.44,8.75,8.75,0,0,0-6.89-3.39q-4.45,0-6.05,4.77a11,11,0,0,0-.1,7.53Q6547.36,7166.57,6563.05,7186.49Z" transform="translate(-6239 -6659)"/><path d="M6613.4,7147.06a63.32,63.32,0,0,0-8.37.21l-2.55.11-2.33.1c-1.77.08-3.07.11-3.92.11h-1.91l-2.44-.11h-5.4a27.38,27.38,0,0,1,.63,9.33q-.31,11.67-.63,24.59h6.78c3.11.08,4.84.11,5.19.11,1.06,0,1.56.42,1.49,1.27s-.53,1.24-1.59,1.38h-12q-.63,23.33-.95,28.73a17.78,17.78,0,0,1-.53,3.81q3.7.11,6.67.11,4,.1,6.15,0,4.35-.21,10.5-.32,6.68-.1,7.31.21a1.67,1.67,0,0,1,.85.85,1.38,1.38,0,0,1,0,1.06c-.21.57-1.2.88-3,1-1.56.08-4.38.15-8.48.22s-7.21.1-9.12.1H6589q-5.09,0-6.78-.1a6.88,6.88,0,0,1-3-.32,4.6,4.6,0,0,1-2.86-3.39,13.66,13.66,0,0,1-.53-2.55l-.32-2.65q-.75-6.15.42-34.34,1.17-27,2-31.59c.07-.56,1.06-.85,3-.85a6.68,6.68,0,0,1,1.06.11h2l3.28.21,3.71.11q4.46.1,6.79,0l4.77-.22,5.62-.21a52.81,52.81,0,0,1,7.31,0,1.64,1.64,0,0,1,.85,1,1.38,1.38,0,0,1,0,1.06l-.11.42-.32.32-.53.32Z" transform="translate(-6239 -6659)"/><path d="M6677.74,7196.67c.64,0,.95.18.95.53a77,77,0,0,1-3,11.66q-3.93,11.24-9.86,11.66h-1.17l-1.48-.11a16.59,16.59,0,0,1-3.82-1.06,16.86,16.86,0,0,1-8-8.37q-2.66-5.52-3.18-14.84-.22-3.18-.22-7.53v-3.5l.11-3.18a78.91,78.91,0,0,1,.95-11.13q.85-4.77,2.12-10.28,2-9,7.64-13.78c3-2.47,5.9-3.71,8.79-3.71q5.2,0,8.91,9.12c-.14.49-.36.78-.64.85l-.85.1a.61.61,0,0,1-.42-.1q-3.29-8-7-7.95-5.19,0-7.52,16.85a145.86,145.86,0,0,0-1.38,19.08q0,15.06,2.44,25.44,2.64,10.6,6.46,10.6,3.18,0,6.26-8.8a68.6,68.6,0,0,0,2.75-11.13Q6676.68,7196.57,6677.74,7196.67Z" transform="translate(-6239 -6659)"/><path d="M6703.71,7142.4q7.95,0,11.13,16.53a122.47,122.47,0,0,1,1.59,22.16q0,16.11-4.35,28.4-4,11.46-10.07,11.88h-1.16l-1.49-.11a15.35,15.35,0,0,1-3.92-1.17q-5.08-2.22-8.16-8.48-2.76-5.61-3.29-15-.21-3.29-.21-7.74v-3.6l.11-3.18a73.75,73.75,0,0,1,1.06-11.34q.73-4.87,2-10.5,2.13-9.1,7.85-14Q6699.25,7142.4,6703.71,7142.4Zm6.47,66.35q4.13-11.86,4.13-27.66a125.36,125.36,0,0,0-1.48-21.73,31.67,31.67,0,0,0-4-10.92c-1.7-2.62-3.39-3.92-5.09-3.92q-5.29,0-7.63,17.17a140.68,140.68,0,0,0-1.49,19.4q0,15.36,2.65,26t6.47,10.7Q6707,7217.76,6710.18,7208.75Z" transform="translate(-6239 -6659)"/><path d="M6783.63,7144.73a21.88,21.88,0,0,1,2.23,1.38,11.5,11.5,0,0,1,2.33,2.65,16.48,16.48,0,0,1,2.55,9.54q0,6.57-.32,30.63,0,4-.11,8.8-.11,3.39-.1,7.63c-.08,5.3-.11,8.13-.11,8.48q-.11,4.35-.21,5c-.36.92-1.24,1.2-2.65.85l-1.06-.21-1.06-.21a7.7,7.7,0,0,1-2.23-.85q-2.54-1.38-2.33-5,.21-2.66.32-12.19.21-11.23.32-21.73.11-30.1-1.38-32.86t-4.67,3.71q-1,2.32-2.33,5.72l-1.06,2.86c-.28.71-.56,1.49-.85,2.33q-.52,1.59-2.65,9.76-1.91,7.41-4,15.9v2.43q-.12,5.63,0,15.69c.07,2.48.1,4.91.1,7.32.07,2.05.11,3.57.11,4.55q.11,3.18-3,3.29a8.66,8.66,0,0,1-3.71-.85,10.27,10.27,0,0,1-3-1.8,5.41,5.41,0,0,1-1.16-3.5q-.33-6-.22-21.41.1-5.73.22-11,.1-4.87.21-6.58c0-.28,0-1,.1-2.22l.11-1.7.11-1.91q.21-5.09.31-8.9.21-11.76-1.27-11.77-3.6,0-10.81,25.66a131.88,131.88,0,0,0-4.35,27.24q-.31,5.3-.42,10.6v4.87l.11,1q0,3.39-4.77,2.44-5.62-1.17-6.15-2-.85-1.48-.85-24.06,0-20.14-1.59-49.4c0-.77.95-1.09,2.86-.95a14.16,14.16,0,0,1,4.77,1.17c1.91.91,2.93,1.59,3.08,2a6.31,6.31,0,0,1,.21,2V7153q.31,7.09,1.16,31.27a227.72,227.72,0,0,1,6.79-24.38c.77-2.05,1.59-4.1,2.44-6.15l.42-1.17.42-.95c.29-.64.5-1.13.64-1.49q2.22-5.82,7.74-6.78,5.51-1.17,7.84,4.24,2.55,5.63,2,24.27c.63-2.33,1.27-4.59,1.9-6.78q1.17-4.14,2.34-7.42,2.85-8.58,4.87-11.13a6.47,6.47,0,0,1,5.3-3,10.17,10.17,0,0,1,2.44.32A10,10,0,0,1,6783.63,7144.73Z" transform="translate(-6239 -6659)"/><path d="M6836.63,7147.06a63.32,63.32,0,0,0-8.37.21l-2.55.11-2.33.1c-1.76.08-3.07.11-3.92.11h-1.91l-2.44-.11h-5.4a27.13,27.13,0,0,1,.63,9.33q-.32,11.67-.63,24.59h6.78c3.11.08,4.84.11,5.2.11,1.06,0,1.55.42,1.48,1.27s-.53,1.24-1.59,1.38h-12q-.63,23.33-1,28.73a17.17,17.17,0,0,1-.53,3.81q3.71.11,6.68.11,4,.1,6.14,0,4.35-.21,10.5-.32,6.68-.1,7.31.21a1.64,1.64,0,0,1,.85.85,1.38,1.38,0,0,1,0,1.06c-.21.57-1.2.88-3,1q-2.32.12-8.48.22t-9.11.1h-6.79q-5.09,0-6.78-.1a6.88,6.88,0,0,1-3-.32,4.62,4.62,0,0,1-2.86-3.39,14.52,14.52,0,0,1-.53-2.55l-.32-2.65q-.73-6.15.42-34.34,1.17-27,2-31.59c.07-.56,1.06-.85,3-.85a6.92,6.92,0,0,1,1.06.11h2l3.29.21,3.71.11c3,.07,5.23.07,6.78,0l4.77-.22,5.62-.21a52.81,52.81,0,0,1,7.31,0,1.61,1.61,0,0,1,.85,1,1.38,1.38,0,0,1,0,1.06l-.11.42-.31.32-.53.32Z" transform="translate(-6239 -6659)"/><path d="M6900.23,7170.8a12.33,12.33,0,0,1,6.47.53q6.89,2.13,9.64,10.71,2.86,8.8-2.75,19.61a46.37,46.37,0,0,1-4.77,7.42,22.4,22.4,0,0,1-3.93,4.13,30.73,30.73,0,0,1-3.39,2.23,50,50,0,0,1-4.66,2.54q-5.94,2.76-8.06,1.49-3.28-2-3.28-8.06,11.44-2.86,17.17-12.29a35.43,35.43,0,0,0,3.5-8.06c.35-1.2.7-2.47,1.06-3.82q.32-1.36.63-3.39,1.28-6.15-.85-8.69a4.47,4.47,0,0,0-4.77-1.48,7.89,7.89,0,0,0-2.33.95l-1.06.74-1.06.64a5.48,5.48,0,0,1-5.51.21q-4.77-2.32-4.35-5.3c.22-.42.53-1.1,1-2s.95-2.19,1.38-3.4a61.76,61.76,0,0,0,2.86-8.9q2.86-11.76-3-11.45-4,.32-7,17.39a164.29,164.29,0,0,1,1,21.51l-.74,28.94q-.75,7.22-6.15,6.89-3.93-.31-4.35-5.62.31-6.47-.85-34.66-.42-10.59-.95-20.14c-.28-6.07-.49-9.82-.64-11.23q-.42-4.45,1.91-4c.71.07,2,.28,4,.63q3.39.75,5.41,9a31.45,31.45,0,0,1,2.65-6.67,17,17,0,0,1,2.54-3.29l.53-.42.74-.64a7.86,7.86,0,0,1,2.65-.85q4.14-.31,10.07,4.35a10.09,10.09,0,0,1,3.82,6.89,19.54,19.54,0,0,1-.74,8.05A35.22,35.22,0,0,1,6900.23,7170.8Z" transform="translate(-6239 -6659)"/><path d="M6960,7153.42q.75,5.84-.1,25.12c-.14,2.19-.29,4.6-.43,7.21l-.21,3.29-.1,3c-.22,4.31-.32,6.82-.32,7.53a94.15,94.15,0,0,0,.85,14.73q.31,1.59.63,2.76l.32.74.11.64c.14.85-.46,1.31-1.81,1.38q-4.33,0-6.67-5.41a33.16,33.16,0,0,1-2.12-11.34q-.85,3.29-1.81,5.93-3.92,11.25-9.85,11.66h-1.17l-1.48-.1a15,15,0,0,1-11.77-9.44q-2.65-5.4-3.18-14.73-.21-3.18-.21-7.53v-3.49l.1-3.18a77,77,0,0,1,1-11q.73-4.77,2-10.28,2.11-8.91,7.74-13.67,4.35-3.72,8.69-3.71,7.74,0,10.81,16.21a40.62,40.62,0,0,1,.85,5.2l.64-11.66v-1.7l.21-2.54a13.74,13.74,0,0,1,1.06-4.56c.71-1.2,1.73-1.1,3.07.32Q6959.28,7147.16,6960,7153.42Zm-13.56,54.91q4.13-11.65,4.13-27a121.11,121.11,0,0,0-1.48-21.31,30.49,30.49,0,0,0-3.93-10.6q-2.54-3.92-5-3.92-5.19,0-7.52,16.85a143.46,143.46,0,0,0-1.38,19,108.44,108.44,0,0,0,2.54,25.33q2.55,10.5,6.36,10.5Q6943.37,7217.13,6946.45,7208.33Z" transform="translate(-6239 -6659)"/><path d="M6998.39,7196.67c.63,0,.95.18.95.53a78.2,78.2,0,0,1-3,11.66q-3.91,11.24-9.86,11.66h-1.16l-1.49-.11a16.51,16.51,0,0,1-3.81-1.06A16.92,16.92,0,0,1,6972,7211q-2.65-5.52-3.18-14.84-.21-3.18-.21-7.53v-3.5l.11-3.18a77.44,77.44,0,0,1,.95-11.13q.84-4.77,2.12-10.28,2-9,7.63-13.78,4.45-3.7,8.8-3.71,5.19,0,8.9,9.12c-.14.49-.35.78-.63.85l-.85.1a.59.59,0,0,1-.42-.1q-3.3-8-7-7.95-5.19,0-7.53,16.85a145.74,145.74,0,0,0-1.37,19.08,113.53,113.53,0,0,0,2.43,25.44q2.66,10.6,6.47,10.6,3.18,0,6.25-8.8a69.61,69.61,0,0,0,2.76-11.13Q6997.33,7196.57,6998.39,7196.67Z" transform="translate(-6239 -6659)"/><path d="M7034.21,7197.83q1,1.59,2.86,4.67,2.24,3.49,4.24,6.57,5.52,8.48,6.15,9a1.33,1.33,0,0,1,.53,1.17l-.1.42-.22.32-.31.21-.53.21a1.87,1.87,0,0,1-1.59-.63c-.5-.57-2.86-4.14-7.11-10.71l-2.54-3.82c-.64-1-1.41-2.22-2.33-3.71-1.91-3-3.08-4.77-3.5-5.4q-1.38-2.12-3.82-5.73l-2-2.75c-.57-.78-1.13-1.56-1.7-2.33q-3.7,5.4-6.14,8.69c-.07,4.8-.11,10.32-.11,16.53v5.94a14.92,14.92,0,0,1-.1,1.8v.85c0,.5-.57.81-1.7.95a10.54,10.54,0,0,1-3,0,8.42,8.42,0,0,1-2.54-.95,3.84,3.84,0,0,1-1.81-1.7q-.42-.73-.31-15.37,0-5.4.1-11.66.11-5.4.21-8.79.11-7.95,0-35.62c-.07-1.13.25-1.77,1-1.91l1,.11.64.21,2.12,1.27c1,.57,1.84,1.1,2.54,1.59a3.62,3.62,0,0,1,1.81,3.61q-.23,21.61,0,25.86c.06.71.1,2.33.1,4.88q1.28-1.06,12.3-17.07,1.91-2.76,8.16-10.92,6.57-8.79,7.52-9.54c.57-.49,1.24-.32,2,.53a4.2,4.2,0,0,1,1.17,2.33q.09,1-7.64,12.94-5.94,8.89-14.63,21.62l-.63.95.32.53.42.64c.42.57.81,1.13,1.17,1.7,1,1.62,1.94,3.11,2.86,4.45Q7032.83,7195.72,7034.21,7197.83Z" transform="translate(-6239 -6659)"/><path d="M7117.53,7216.7a1.62,1.62,0,0,1,.95.85,1.38,1.38,0,0,1,0,1.06c-.21.57-1.24.88-3.07,1q-2.34.12-8.48.22c-4.1.07-7.11.1-9,.1h-7q-5,0-6.68-.1h-2c-1.56-.07-2.58-.57-3.08-1.49s-.81-3.42-.95-7.31q-.42-7.11,0-34.35.53-27.77,1.17-31.69.1-.63,5.61-.74c2-.07,3.11.53,3.4,1.8q.42,1.38.31,10.71v13.35q-.1,9.33-.1,16.54-.21,20.25-.43,26.18a18.7,18.7,0,0,1-.53,4H7094q3.72.1,5.83,0,4.35-.21,10.39-.32Q7117,7216.39,7117.53,7216.7Z" transform="translate(-6239 -6659)"/><path d="M7162.47,7153.42q.73,5.84-.11,25.12c-.14,2.19-.28,4.6-.42,7.21l-.21,3.29-.11,3q-.31,6.47-.32,7.53a95.41,95.41,0,0,0,.85,14.73c.21,1.06.43,2,.64,2.76l.32.74.1.64q.21,1.28-1.8,1.38-4.35,0-6.68-5.41a33.4,33.4,0,0,1-2.12-11.34q-.84,3.29-1.8,5.93-3.92,11.25-9.86,11.66h-1.16l-1.49-.1a17.26,17.26,0,0,1-3.71-1.06,16.93,16.93,0,0,1-8.05-8.38q-2.65-5.4-3.18-14.73c-.15-2.12-.21-4.63-.21-7.53v-3.49l.1-3.18a78.23,78.23,0,0,1,.95-11q.75-4.77,2-10.28,2.11-8.91,7.74-13.67,4.34-3.72,8.69-3.71,7.74,0,10.81,16.21a42.46,42.46,0,0,1,.85,5.2l.63-11.66v-1.7c.07-.85.15-1.69.22-2.54a13.48,13.48,0,0,1,1.06-4.56c.7-1.2,1.73-1.1,3.07.32Q7161.74,7147.16,7162.47,7153.42Zm-13.57,54.91q4.14-11.65,4.14-27a120,120,0,0,0-1.49-21.31,30.49,30.49,0,0,0-3.92-10.6q-2.55-3.92-5-3.92-5.19,0-7.53,16.85a143.46,143.46,0,0,0-1.38,19q0,14.94,2.55,25.33t6.36,10.5Q7145.83,7217.13,7148.9,7208.33Z" transform="translate(-6239 -6659)"/><path d="M7206.46,7144.73c1,0,1.48.39,1.48,1.16s-.6,1.35-1.59,1.49h-13.88q.52,6.78.63,32.54.22,23.85,0,31.27-.21,5.09-1,6.68a3.68,3.68,0,0,1-3.07,1.8l-1.91.21a3.83,3.83,0,0,1-1.91-.42c-1.27-.85-2-3-2.12-6.47s-.21-12.19-.21-26l.1-16.43v-13.25q-.1-8.68.22-10h-13.47c-1.06-.14-1.59-.64-1.59-1.49s.5-1.16,1.49-1.16l7.74-.11,21.51-.1C7203.32,7144.66,7205.82,7144.73,7206.46,7144.73Z" transform="translate(-6239 -6659)"/><path d="M7249.6,7147.06a63.32,63.32,0,0,0-8.37.21l-2.54.11-2.34.1c-1.76.08-3.07.11-3.92.11h-1.91l-2.43-.11h-5.41a27.13,27.13,0,0,1,.63,9.33q-.31,11.67-.63,24.59h6.78c3.11.08,4.84.11,5.2.11,1.06,0,1.55.42,1.48,1.27s-.53,1.24-1.59,1.38h-12q-.63,23.33-.95,28.73a17.17,17.17,0,0,1-.53,3.81q3.7.11,6.68.11,4,.1,6.15,0,4.34-.21,10.49-.32,6.67-.1,7.31.21a1.64,1.64,0,0,1,.85.85,1.38,1.38,0,0,1,0,1.06c-.21.57-1.2.88-3,1q-2.33.12-8.48.22c-4.17.07-7.2.1-9.11.1h-6.79q-5.09,0-6.78-.1a6.88,6.88,0,0,1-3-.32,4.62,4.62,0,0,1-2.86-3.39,14.52,14.52,0,0,1-.53-2.55l-.32-2.65q-.73-6.15.42-34.34,1.17-27,2-31.59c.07-.56,1.06-.85,3-.85a6.92,6.92,0,0,1,1.06.11h2l3.29.21,3.71.11q4.45.1,6.78,0l4.77-.22,5.62-.21a52.81,52.81,0,0,1,7.31,0,1.61,1.61,0,0,1,.85,1,1.38,1.38,0,0,1,0,1.06l-.11.42-.31.32-.53.32Z" transform="translate(-6239 -6659)"/><path d="M7279.07,7187.66a7.49,7.49,0,0,0,.53,1.06l.74,1.59c.64,1.41,1.24,2.75,1.8,4,1.77,3.6,3.11,6.22,4,7.84q2.11,3.81,4.88,9.33,3.07,6,3.18,6.57a2,2,0,0,1-.43,1.27,1.19,1.19,0,0,1-.95.53c-.57,0-1.31-.77-2.23-2.33s-2.12-3.92-4-7.53-3.26-6.46-4-8.16c-.36-.63-.85-1.62-1.49-3l-.95-1.8-.85-1.91a66.8,66.8,0,0,1-3-6.14,27.43,27.43,0,0,1-4.55,1.69,28.38,28.38,0,0,1-3.29.64q-.42,27.77-1.06,28.41a3.17,3.17,0,0,1-1.7,0,17.17,17.17,0,0,1-2.86-1q-4-1.8-4.13-4.13v-33q0-29.36-.53-33.49c-.29-2.19-.07-3.61.63-4.24a1.52,1.52,0,0,1,1-.32l.95.1q8.06,2.55,8.16,6c-.07,1.83-.1,5.65-.1,11.44q1.91-9.32,4.24-12.29,4.56-5.84,11.34-4.35a9.56,9.56,0,0,1,4.56,3.08,12.91,12.91,0,0,1,2.86,4.45,22.44,22.44,0,0,1,1.17,4.56,39.3,39.3,0,0,1,.31,7.63q-.53,10.82-6.78,17.38A37.37,37.37,0,0,1,7279.07,7187.66Zm-10.49-6.79-.11,7.11c.85-.36,1.66-.75,2.44-1.17a16.91,16.91,0,0,0,2.75-1.7,18.24,18.24,0,0,0,5.3-5.4q4-6.78,4.35-16.54.52-10.28-3.92-14.73-3.49-3.6-6.79,9.11c-.84,3.26-1.66,7.21-2.43,11.88Q7269.32,7174.83,7268.58,7180.87Z" transform="translate(-6239 -6659)"/></svg>