<?xml version="1.0" encoding="utf-8"?>
<!-- Generator: Adobe Illustrator 22.1.0, SVG Export Plug-In . SVG Version: 6.00 Build 0)  -->
<svg version="1.1" id="Capa_2" xmlns="http://www.w3.org/2000/svg" xmlns:xlink="http://www.w3.org/1999/xlink" x="0px" y="0px"
	 viewBox="0 0 792 612" style="enable-background:new 0 0 792 612;" xml:space="preserve">
<style type="text/css">
	.st0{fill:none;stroke:#951B81;stroke-width:2;stroke-miterlimit:10;}
	.st1{fill:none;stroke:#DEDC00;stroke-width:2;stroke-miterlimit:10;}
</style>
<path class="st0" d="M422.5,200.9c-0.8,0-1.4-0.8-1.2-1.5c0.7-3.9,3.6-18.4,3.6-19.6c0-1.3,5.5-0.1,7.1,5.8c0,0,8.2-7.6,8.9-13.1
	s2.8-15.8,14.2-15.5l2.7,0c0,0-6.4,7.9-7.2,15.1c-0.8,7.2,8.2,2.3,10.4-5.3s14-11.5,19.2-9.3c5.2,2.2,3.7,4.4,3.7,4.4
	s-10.7-1.3-11.8,4.6c-1.2,5.9,0.8,8.2,3.5,10.2c2.7,1.9,14.7,1.2,15.8,1.3c1.2,0.1,7,1.4,9.9,7.6s1.5,6.4,1.5,6.4
	s-17.5-10.9-16.1-4.3c1.4,6.7,15.2,7.2,13,24.2c-2.2,17-11.6,26.7-25.4,34.1c0,0-11.6,3.2-20.5-3.2c0,0,14.2-0.8,21.5-28.2
	c7.3-27.4-26.5-27.8-34-22C435.2,197.4,426,201,422.5,200.9z"/>
<path class="st0" d="M419.6,277c0,0,15.8-6.3,11.7-33.6s-8.6-29.9-7.3-31.9s9.8-12.8,27.2-12.4c17.4,0.4,11.8,4,11.8,4
	s-18.2,2.2-21.3,22.2s6,30.4,21.2,28.9c15.2-1.5,39.8-7.9,45.9-25.4c0,0,10.8-22.8,0.9-41.5s-21.4-16.4-21.4-16.4s0.8-3,7.3-1.9
	c6.6,1,7.6,2.1,7.6,2.1s-2.6-4.8,0-4.6s25.9,14.8,33.7,35.5s16.2,58.9,16.2,58.9l-13-18.7c0,0,5.1,47.1-28.6,71.8
	s-77.3,68.6-78.8,77.5c-1.5,8.9,7.3,5,7.3,5s14.9-6.3,19.9-3.9c5,2.4-32.2,13.4-48.8,96.7l-1.5,7.1c0,0,4.1-28.9-5.2-64.1
	c-9.3-35.2-18.6-65.6-27-76.4c-8.4-10.8-28.7-41-29.1-44s16.8,23.7,53.1,27.8s40.2-2.4,44.3-6.5c4.1-4.1-14.3,7.9-51.8-21.6
	c-0.6-0.4-1.1-0.9-1.7-1.3c-1.8-1.3-9.1-7.4-15.4-21.7c0,0,14.9,15.1,20.3,13.4c0,0-11-13.2-11.4-15.1c-0.4-1.9,2.4-0.9,2.4-0.9
	s28.9,17.5,38,15.3c9.1-2.2,9.1-2.2,9.1-2.2s-12.7-1.5-21.6-9.7c-1.2-1.1-2-2.6-2.3-4.2c-0.1-1,0-1.8,0.7-1.8
	c1.7,0,10.6,10.4,30.7,6.5l4.5-1.1C447,288.6,414.1,281.2,419.6,277z"/>
<path class="st1" d="M387.9,234.5c0,0-20.9-7.4-24.1-25.2s10.6-26.1,10.6-26.1s10.4-5.6,21.6,1.8c11.2,7.4,10.6,12.8,14.4,12.8
	s3.1-5.2,2.7-6.7c-0.4-1.6-9.2-20.7-12.6-19.6s2.7,6.1-2.2,2.9s-9.2-6.5-11-6.5c-1.8,0-0.9-13.9-17.1-22.3c0,0-4.7-1.1-2,2.5
	s13.7,18,8.8,19.1s-15.3-21.8-27.9-25.4s-14.2,2.7-13,3.4c1.1,0.7,6.7,1.3,10.2,2c3.5,0.7,12.3,11.5,11.4,13.5
	c-0.9,2-16.2,5.4-23.2,17.5c0,0,14.6-5.4,16.2-3.6c1.6,1.8-16.2,16.6-6.3,36s29.6,23.8,29.6,23.8S381.2,235.9,387.9,234.5z"/>
<path class="st1" d="M379.6,196.3c0,0,22.5,2.2,14.8,36.1c-0.5,2.2-1.7,4.2-3.4,5.7c-4.1,3.6-13,8.4-27.3,1.7
	c-20.7-9.6-31.2-21.6-34.2-29.1c-3-7.5-15-34.7-2.1-46.3c12.9-11.6,17.1-9.5,17.1-9.5s-29.4-7.2-49.8,15
	c-20.4,22.2-33,71.1-22.2,97.5c10.8,26.4,14.7,36,42.3,58.5c27.6,22.5,53.4,54,42.3,49.2c-11.1-4.8-19.2-11.4-19.2-11.4
	s37.2,35.4,39,38.7c1.8,3.3,9.3,16.2,9.3,16.2s-1.8-39-27-72.9s-34.8-50.4-35.7-69.6c0,0,19.6,43.8,72.5,51.6c0,0,12.1,0.9,14.2,0
	c2.1-0.9-37.5-15-56.1-53.1c0,0,29.7,12,43.5,3c13.8-9,25.8-19.5,24.3-37.8S408.7,194.5,379.6,196.3z"/>
<path class="st1" d="M424.9,198.6c-0.8,0-1.4-0.8-1.2-1.5c0.7-3.9,3.6-18.4,3.6-19.6c0-1.3,5.5-0.1,7.1,5.8c0,0,8.2-7.6,8.9-13.1
	s2.8-15.8,14.2-15.5l2.7,0c0,0-6.4,7.9-7.2,15.1c-0.8,7.2,8.2,2.3,10.4-5.3c2.2-7.6,14-11.5,19.2-9.3c5.2,2.2,3.7,4.4,3.7,4.4
	s-10.7-1.3-11.8,4.6c-1.2,5.9,0.8,8.2,3.5,10.2c2.7,1.9,14.7,1.2,15.8,1.3c1.2,0.1,7,1.4,9.9,7.6c3,6.2,1.5,6.4,1.5,6.4
	s-17.5-10.9-16.1-4.3c1.4,6.7,15.2,7.2,13,24.2c-2.2,17-11.6,26.7-25.4,34.1c0,0-11.6,3.2-20.5-3.2c0,0,14.2-0.8,21.5-28.2
	c7.3-27.4-26.5-27.8-34-22C437.6,195.2,428.4,198.8,424.9,198.6z"/>
<path class="st1" d="M421.9,274.8c0,0,15.8-6.3,11.7-33.6c-4.1-27.3-8.6-29.9-7.3-31.9c1.3-2.1,9.8-12.8,27.2-12.4
	c17.4,0.4,11.8,4,11.8,4s-18.2,2.2-21.3,22.2c-3.1,20,6,30.4,21.2,28.9c15.2-1.5,39.8-7.9,45.9-25.4c0,0,10.8-22.8,0.9-41.5
	c-9.9-18.7-21.4-16.4-21.4-16.4s0.8-3,7.3-1.9c6.6,1,7.6,2.1,7.6,2.1s-2.6-4.8,0-4.6s25.9,14.8,33.7,35.5
	c7.7,20.8,16.2,58.9,16.2,58.9l-13-18.7c0,0,5.1,47.1-28.6,71.8c-33.7,24.6-77.3,68.6-78.8,77.5c-1.5,8.9,7.3,5,7.3,5
	s14.9-6.3,19.9-3.9c5,2.4-32.2,13.4-48.8,96.7l-1.5,7.1c0,0,4.1-28.9-5.2-64.1c-9.3-35.2-18.6-65.6-27-76.4
	c-8.4-10.8-28.7-41-29.1-44s16.8,23.7,53.1,27.8c36.3,4.1,40.2-2.4,44.3-6.5c4.1-4.1-14.3,7.9-51.8-21.6c-0.6-0.4-1.1-0.9-1.7-1.3
	c-1.8-1.3-9.1-7.4-15.4-21.7c0,0,14.9,15.1,20.3,13.4c0,0-11-13.2-11.4-15.1c-0.4-1.9,2.4-0.9,2.4-0.9s28.9,17.5,38,15.3
	s9.1-2.2,9.1-2.2s-12.7-1.5-21.6-9.7c-1.2-1.1-2-2.6-2.3-4.2c-0.1-1,0-1.8,0.7-1.8c1.7,0,10.6,10.4,30.7,6.5l4.5-1.1
	C449.4,286.4,416.5,279,421.9,274.8z"/>
<path class="st0" d="M390.3,232.3c0,0-20.9-7.4-24.1-25.2c-3.1-17.8,10.6-26.1,10.6-26.1s10.4-5.6,21.6,1.8
	c11.2,7.4,10.6,12.8,14.4,12.8s3.1-5.2,2.7-6.7s-9.2-20.7-12.6-19.6c-3.4,1.1,2.7,6.1-2.2,2.9c-4.9-3.1-9.2-6.5-11-6.5
	s-0.9-13.9-17.1-22.3c0,0-4.7-1.1-2,2.5s13.7,18,8.8,19.1s-15.3-21.8-27.9-25.4c-12.6-3.6-14.2,2.7-13,3.4c1.1,0.7,6.7,1.3,10.2,2
	c3.5,0.7,12.3,11.5,11.4,13.5c-0.9,2-16.2,5.4-23.2,17.5c0,0,14.6-5.4,16.2-3.6s-16.2,16.6-6.3,36s29.6,23.8,29.6,23.8
	S383.5,233.6,390.3,232.3z"/>
<path class="st0" d="M382,194c0,0,22.5,2.2,14.8,36.1c-0.5,2.2-1.7,4.2-3.4,5.7c-4.1,3.6-13,8.4-27.3,1.7
	c-20.7-9.6-31.2-21.6-34.2-29.1c-3-7.5-15-34.7-2.1-46.3c12.9-11.6,17.1-9.5,17.1-9.5s-29.4-7.2-49.8,15
	c-20.4,22.2-33,71.1-22.2,97.5c10.8,26.4,14.7,36,42.3,58.5c27.6,22.5,53.4,54,42.3,49.2c-11.1-4.8-19.2-11.4-19.2-11.4
	s37.2,35.4,39,38.7s9.3,16.2,9.3,16.2s-1.8-39-27-72.9c-25.2-33.9-34.8-50.4-35.7-69.6c0,0,19.6,43.8,72.5,51.6c0,0,12.1,0.9,14.2,0
	c2.1-0.9-37.5-15-56.1-53.1c0,0,29.7,12,43.5,3s25.8-19.5,24.3-37.8C422.8,219.3,411.1,192.2,382,194z"/>
</svg>
